<svg id="visual" viewBox="0 0 960 540" width="960" height="540" xmlns="http://www.w3.org/2000/svg" xmlns:xlink="http://www.w3.org/1999/xlink" version="1.1"><rect x="0" y="0" width="960" height="540" fill="#FFFFFF"></rect><defs><linearGradient id="grad1_0" x1="43.8%" y1="0%" x2="100%" y2="100%"><stop offset="14.444444444444446%" stop-color="#ffffff" stop-opacity="1"></stop><stop offset="85.55555555555554%" stop-color="#ffffff" stop-opacity="1"></stop></linearGradient></defs><defs><linearGradient id="grad2_0" x1="0%" y1="0%" x2="56.3%" y2="100%"><stop offset="14.444444444444446%" stop-color="#ffffff" stop-opacity="1"></stop><stop offset="85.55555555555554%" stop-color="#ffffff" stop-opacity="1"></stop></linearGradient></defs><g transform="translate(960, 0)"><path d="M0 378C-61.4 384.2 -122.8 390.4 -144.7 349.2C-166.5 308 -148.7 219.3 -183.8 183.8C-219 148.4 -307.1 166 -348.3 144.3C-389.5 122.5 -383.7 61.2 -378 0L0 0Z" fill="#ffe7da"></path></g><g transform="translate(0, 540)"><path d="M0 -378C40.8 -358.5 81.7 -338.9 135.1 -326.1C188.5 -313.3 254.4 -307.2 267.3 -267.3C280.1 -227.3 239.8 -153.5 249.4 -103.3C259 -53.1 318.5 -26.6 378 0L0 0Z" fill="#ffe7da"></path></g></svg>