<svg id="visual" viewBox="0 0 960 540" width="960" height="540" xmlns="http://www.w3.org/2000/svg" xmlns:xlink="http://www.w3.org/1999/xlink" version="1.1"><rect x="0" y="0" width="960" height="540" fill="#FFFFFF"></rect><defs><linearGradient id="grad1_0" x1="43.8%" y1="100%" x2="100%" y2="0%"><stop offset="14.444444444444446%" stop-color="#ffffff" stop-opacity="1"></stop><stop offset="85.55555555555554%" stop-color="#ffffff" stop-opacity="1"></stop></linearGradient></defs><defs><linearGradient id="grad2_0" x1="0%" y1="100%" x2="56.3%" y2="0%"><stop offset="14.444444444444446%" stop-color="#ffffff" stop-opacity="1"></stop><stop offset="85.55555555555554%" stop-color="#ffffff" stop-opacity="1"></stop></linearGradient></defs><g transform="translate(960, 540)"><path d="M-378 0C-384.2 -61.4 -390.4 -122.8 -349.2 -144.7C-308 -166.5 -219.3 -148.7 -183.8 -183.8C-148.4 -219 -166 -307.1 -144.3 -348.3C-122.5 -389.5 -61.2 -383.7 0 -378L0 0Z" fill="#ffd5bf"></path></g><g transform="translate(0, 0)"><path d="M378 0C358.5 40.8 338.9 81.7 326.1 135.1C313.3 188.5 307.2 254.4 267.3 267.3C227.3 280.1 153.5 239.8 103.3 249.4C53.1 259 26.6 318.5 0 378L0 0Z" fill="#ffd5bf"></path></g></svg>